<svg width="256" height="202" viewBox="0 0 256 202" fill="none" xmlns="http://www.w3.org/2000/svg">
<path d="M193.009 105.483C193.627 87.5184 194.445 61.847 195.438 36.193C195.647 30.7679 196.457 25.3689 197.067 19.9699C197.354 17.4271 198.207 16.4867 200.68 16.565C205.008 16.7044 209.345 17.0004 213.638 17.5316C216.024 17.8277 217.8 19.3342 218.088 21.9292C218.558 26.1787 219.072 30.4283 219.272 34.6952C220.056 51.4583 219.176 68.1952 218.131 84.9234C217.226 99.4049 216.398 113.886 215.737 128.377C214.953 145.479 214.317 162.582 213.743 179.693C213.621 183.377 213.969 187.086 214.161 190.779C214.352 194.419 213.995 195.046 210.338 195.272C205.13 195.594 199.897 195.551 194.681 195.864C188.916 196.212 189.491 195.96 189.691 190.805C190.692 164.933 191.702 139.053 193.009 105.483Z" fill="#1BB6F9"/>
<path d="M99.1705 150.514C99.7278 136.886 100.094 123.249 100.903 109.638C101.417 100.956 102.506 92.3091 103.533 83.6707C103.646 82.6954 104.944 81.2673 105.893 81.0844C109.934 80.292 114.044 79.7608 118.154 79.3863C121.071 79.1164 122.081 79.9349 122.299 82.8521C122.752 89.061 123.362 95.3047 123.196 101.505C122.621 123.04 121.672 144.566 121.01 166.101C120.74 174.87 120.784 183.657 120.793 192.434C120.793 197.093 120.897 197.163 116.169 197.145C111.675 197.128 107.173 197.076 102.689 196.823C98.8657 196.606 98.8483 196.466 98.8831 192.53C99.0138 180.2 99.1705 167.86 99.3098 155.53C99.3272 153.858 99.3098 152.194 99.3098 150.523C99.2663 150.523 99.2228 150.523 99.1792 150.514H99.1705Z" fill="#1BB6F9"/>
<path d="M72.733 155.371C73.2816 168.12 73.778 180.868 74.405 193.617C74.5095 195.698 73.9783 196.421 71.8187 196.378C65.218 196.256 58.6172 196.343 52.0165 196.334C49.0471 196.334 48.8903 196.212 48.8903 193.112C48.8903 186.076 48.8468 179.04 49.021 172.012C49.3257 159.621 49.6828 147.22 50.2401 134.838C50.4142 130.945 51.0064 127.018 51.9643 123.247C52.4432 121.384 53.8278 119.137 55.4475 118.301C59.6535 116.133 64.1294 114.382 68.6576 112.972C71.7229 112.014 72.4457 112.763 72.5327 115.985C72.7243 123.23 72.8201 130.484 72.8811 137.737C72.9333 143.615 72.8898 149.485 72.8898 155.363C72.8375 155.363 72.7766 155.363 72.7243 155.371H72.733Z" fill="#1BB6F9"/>
<path d="M161.224 142.726C161.224 158.888 161.198 173.762 161.25 188.626C161.25 190.647 161.634 192.658 161.869 194.679C161.982 195.663 161.895 196.446 160.65 196.472C155.216 196.594 149.791 196.725 144.357 196.821C142.606 196.856 142.006 195.993 142.18 194.208C144.766 168.049 144.444 141.76 145.689 115.548C145.985 109.331 146.786 103.131 147.387 96.9305C147.561 95.1192 148.476 93.9958 150.461 93.9523C153.648 93.8826 156.835 93.7172 160.023 93.6649C161.964 93.6301 162.94 94.6402 162.87 96.6257C162.731 101.119 162.661 105.612 162.496 110.106C162.069 121.409 161.607 132.712 161.207 142.726H161.224Z" fill="#1BB6F9"/>
<mask id="path-5-outside-1_9000_6241" maskUnits="userSpaceOnUse" x="-2.04297" y="-2.05273" width="258" height="204" fill="black">
<rect fill="white" x="-2.04297" y="-2.05273" width="258" height="204"/>
<path d="M16.5223 24.1062C16.0782 24.62 15.5906 25.1076 15.19 25.6562C13.0304 28.5647 10.9056 31.4993 8.74602 34.4078C8.18871 35.1654 7.66622 36.0275 6.91733 36.5326C6.18585 37.0202 4.92318 37.5601 4.36587 37.2466C3.7563 36.907 3.29478 35.5312 3.45152 34.7387C3.74759 33.2845 4.37458 31.8302 5.14959 30.5501C7.9623 25.9087 10.7837 21.2761 13.8315 16.7914C14.9462 15.1543 16.5572 13.761 18.1856 12.5941C20.8589 10.687 23.7587 10.7828 25.5961 13.3082C29.2448 18.324 32.5539 23.6011 35.8107 28.8869C36.6205 30.2018 36.8034 32.0305 35.0531 33.1452C33.2766 34.2772 31.953 33.2496 30.9429 31.9521C29.4364 30.019 28.1128 27.929 26.6934 25.9175C26.0838 25.0554 25.422 24.2281 24.168 23.4269C23.959 24.6461 23.6891 25.8478 23.5584 27.0756C20.8938 53.0692 19.039 79.1063 19.0041 105.257C18.9693 131.668 18.9258 158.08 18.8822 184.491C18.8822 187.661 18.8822 187.722 22.139 187.748C24.8211 187.774 27.5032 187.609 30.1853 187.609C32.0401 187.609 32.7019 186.755 32.7455 184.935C32.9109 178.483 33.0328 172.021 33.4421 165.577C34.5393 148.353 35.7236 131.128 36.9863 113.912C37.3259 109.262 39.7642 105.518 43.8918 103.498C49.0034 100.998 54.3066 98.7778 59.7143 97.0188C65.4181 95.164 69.3455 97.5152 71.0348 103.228C71.6444 105.291 72.1059 107.495 72.1146 109.637C72.1756 131.041 72.1495 152.446 72.0711 173.841C72.0537 177.682 71.7489 181.522 71.4876 185.362C71.3744 187.017 71.9405 187.783 73.6559 187.757C75.833 187.722 78.01 187.731 80.1783 187.853C82.1202 187.966 82.634 187.078 82.6688 185.258C82.8865 174.808 83.0432 164.358 83.5222 153.926C84.602 130.301 85.8472 106.685 87.0577 83.0598C87.2144 79.9423 87.5192 76.8335 87.824 73.7334C88.3203 68.7002 90.8979 65.6785 95.8441 64.7816C100.337 63.9717 104.866 63.3099 109.411 62.918C116.143 62.3433 120.148 65.5304 121.289 72.2444C121.829 75.4489 122.317 78.7319 122.23 81.9626C121.489 111.187 120.627 140.411 119.756 169.635C119.6 174.93 119.199 180.216 118.947 185.501C118.825 188.07 119.156 188.366 121.742 188.445C126.627 188.593 126.732 188.602 127.045 183.725C128.064 167.798 128.978 151.862 129.988 135.935C131.025 119.573 132.104 103.219 133.237 86.8652C133.611 81.501 135.692 79.115 140.987 78.2791C144.766 77.6869 148.615 77.2602 152.429 77.3125C158.847 77.3908 161.895 80.4212 162.504 86.8739C162.766 89.6866 162.888 92.5342 162.783 95.3469C161.895 119.129 161.007 142.91 159.953 166.675C159.648 173.528 158.812 180.364 158.203 187.443C158.655 187.478 159.352 187.574 160.04 187.583C163.889 187.6 167.729 187.6 171.578 187.583C174.025 187.583 174.356 187.13 174.339 184.605C174.304 179.824 174.121 175.026 174.391 170.254C175.619 148.597 177.125 126.957 178.249 105.3C179.302 85.0191 179.981 64.7119 180.844 44.4221C181.349 32.6053 181.845 20.7971 182.437 8.98027C182.707 3.53773 184.527 1.32588 189.891 0.472486C195.734 -0.459277 201.621 -0.137079 207.386 1.32588C214.222 3.06749 217.165 8.0485 217.548 14.6144C217.992 22.2862 218.262 29.9841 218.149 37.6646C217.992 47.9663 217.531 58.2592 216.956 68.5434C216.024 85.3413 214.666 102.13 213.908 118.937C213.29 132.487 213.29 146.063 213.002 159.621C212.898 164.768 212.933 169.931 212.584 175.069C212.393 177.917 211.539 180.729 210.991 183.56C210.86 184.248 210.738 184.927 210.564 185.893C221.937 185.606 233.031 185.319 244.656 185.023C243.855 183.96 243.42 183.246 242.854 182.663C240.694 180.416 238.43 178.256 236.34 175.949C235.791 175.348 235.73 174.303 235.452 173.458C236.349 173.345 237.263 173.075 238.125 173.18C238.961 173.284 239.788 173.693 240.546 174.111C244.987 176.532 248.827 179.719 252.076 183.586C254.792 186.825 254.566 190.456 251.092 192.825C247.399 195.35 243.394 197.432 239.423 199.513C238.038 200.244 236.392 200.131 235.347 198.564C234.311 197.014 234.912 195.629 236.009 194.427C236.923 193.435 237.968 192.572 238.961 191.658C238.918 191.467 238.865 191.266 238.822 191.075C237.942 191.075 237.063 191.014 236.201 191.083C222.686 192.207 209.18 193.487 195.647 194.462C159.578 197.057 123.449 197.492 87.3102 196.892C60.6896 196.448 34.0778 195.629 7.45723 194.958C6.08136 194.924 4.70548 194.758 3.34702 194.54C1.61412 194.262 0.0466666 193.644 -0.0404141 191.527C-0.110079 189.882 1.24838 188.802 3.62568 188.628C5.43696 188.497 7.25695 188.384 9.05951 188.436C10.984 188.497 11.6371 187.557 11.6023 185.789C11.5413 182.593 11.4194 179.397 11.4978 176.21C12.1509 148.579 12.5689 120.931 13.5964 93.3179C14.415 71.2865 15.9998 49.2812 17.2277 27.2585C17.2799 26.2919 17.2277 25.3166 17.2277 24.3413C16.9751 24.2542 16.7226 24.1671 16.4701 24.0801L16.5223 24.1062ZM184.301 96.775C182.994 130.345 181.984 156.225 180.983 182.097C180.783 187.252 180.208 187.504 185.973 187.156C191.18 186.843 196.414 186.877 201.63 186.564C205.287 186.337 205.644 185.71 205.453 182.071C205.252 178.378 204.904 174.669 205.035 170.985C205.609 153.874 206.245 136.771 207.029 119.668C207.699 105.178 208.518 90.6968 209.423 76.2152C210.468 59.487 211.348 42.7501 210.564 25.9871C210.364 21.7202 209.85 17.4706 209.38 13.2211C209.093 10.6261 207.316 9.1196 204.93 8.82352C200.637 8.29233 196.3 7.98755 191.972 7.85693C189.491 7.77855 188.646 8.71902 188.359 11.2618C187.749 16.6608 186.939 22.0685 186.73 27.4849C185.737 53.1476 184.919 78.8102 184.301 96.775ZM90.4625 141.804C90.4625 141.804 90.5496 141.804 90.5931 141.813C90.5931 143.485 90.6106 145.148 90.5931 146.82C90.4538 159.151 90.2971 171.49 90.1664 183.821C90.1229 187.748 90.149 187.887 93.9719 188.114C98.4565 188.375 102.959 188.427 107.452 188.436C112.189 188.454 112.085 188.384 112.076 183.725C112.076 174.947 112.024 166.161 112.294 157.392C112.955 135.857 113.905 114.33 114.479 92.7954C114.645 86.5866 114.035 80.3516 113.582 74.1427C113.373 71.2255 112.355 70.407 109.437 70.6769C105.327 71.0514 101.226 71.5826 97.1764 72.375C96.2273 72.5579 94.9385 73.986 94.8165 74.9613C93.789 83.5997 92.7005 92.2468 92.1867 100.929C91.3856 114.539 91.0111 128.176 90.4538 141.804H90.4625ZM64.0248 146.664C64.0771 146.664 64.138 146.664 64.1903 146.655C64.1903 140.777 64.2338 134.908 64.1816 129.03C64.1119 121.776 64.0248 114.522 63.8332 107.277C63.7462 104.055 63.0321 103.306 59.9582 104.264C55.43 105.675 50.954 107.416 46.748 109.593C45.1283 110.429 43.7437 112.676 43.2648 114.539C42.2982 118.31 41.7148 122.237 41.5406 126.13C40.9833 138.513 40.635 150.913 40.3215 163.305C40.1473 170.332 40.1996 177.377 40.1909 184.404C40.1909 187.504 40.3476 187.626 43.317 187.626C49.9178 187.626 56.5185 187.548 63.1192 187.67C65.2788 187.705 65.8013 186.991 65.7055 184.909C65.0785 172.161 64.5734 159.412 64.0335 146.664H64.0248ZM152.516 134.019C152.917 124.005 153.378 112.702 153.805 101.399C153.97 96.9056 154.04 92.4122 154.179 87.9189C154.24 85.9247 153.265 84.9233 151.332 84.9581C148.145 85.0104 144.958 85.1758 141.77 85.2455C139.785 85.2891 138.879 86.4124 138.697 88.2237C138.096 94.4238 137.295 100.624 136.998 106.842C135.753 133.061 136.075 159.351 133.489 185.501C133.315 187.287 133.907 188.149 135.666 188.114C141.1 188.018 146.525 187.879 151.959 187.766C153.204 187.739 153.3 186.956 153.178 185.972C152.943 183.96 152.56 181.94 152.56 179.92C152.507 165.055 152.534 150.182 152.534 134.019H152.516Z"/>
</mask>
<path d="M16.5223 24.1062C16.0782 24.62 15.5906 25.1076 15.19 25.6562C13.0304 28.5647 10.9056 31.4993 8.74602 34.4078C8.18871 35.1654 7.66622 36.0275 6.91733 36.5326C6.18585 37.0202 4.92318 37.5601 4.36587 37.2466C3.7563 36.907 3.29478 35.5312 3.45152 34.7387C3.74759 33.2845 4.37458 31.8302 5.14959 30.5501C7.9623 25.9087 10.7837 21.2761 13.8315 16.7914C14.9462 15.1543 16.5572 13.761 18.1856 12.5941C20.8589 10.687 23.7587 10.7828 25.5961 13.3082C29.2448 18.324 32.5539 23.6011 35.8107 28.8869C36.6205 30.2018 36.8034 32.0305 35.0531 33.1452C33.2766 34.2772 31.953 33.2496 30.9429 31.9521C29.4364 30.019 28.1128 27.929 26.6934 25.9175C26.0838 25.0554 25.422 24.2281 24.168 23.4269C23.959 24.6461 23.6891 25.8478 23.5584 27.0756C20.8938 53.0692 19.039 79.1063 19.0041 105.257C18.9693 131.668 18.9258 158.08 18.8822 184.491C18.8822 187.661 18.8822 187.722 22.139 187.748C24.8211 187.774 27.5032 187.609 30.1853 187.609C32.0401 187.609 32.7019 186.755 32.7455 184.935C32.9109 178.483 33.0328 172.021 33.4421 165.577C34.5393 148.353 35.7236 131.128 36.9863 113.912C37.3259 109.262 39.7642 105.518 43.8918 103.498C49.0034 100.998 54.3066 98.7778 59.7143 97.0188C65.4181 95.164 69.3455 97.5152 71.0348 103.228C71.6444 105.291 72.1059 107.495 72.1146 109.637C72.1756 131.041 72.1495 152.446 72.0711 173.841C72.0537 177.682 71.7489 181.522 71.4876 185.362C71.3744 187.017 71.9405 187.783 73.6559 187.757C75.833 187.722 78.01 187.731 80.1783 187.853C82.1202 187.966 82.634 187.078 82.6688 185.258C82.8865 174.808 83.0432 164.358 83.5222 153.926C84.602 130.301 85.8472 106.685 87.0577 83.0598C87.2144 79.9423 87.5192 76.8335 87.824 73.7334C88.3203 68.7002 90.8979 65.6785 95.8441 64.7816C100.337 63.9717 104.866 63.3099 109.411 62.918C116.143 62.3433 120.148 65.5304 121.289 72.2444C121.829 75.4489 122.317 78.7319 122.23 81.9626C121.489 111.187 120.627 140.411 119.756 169.635C119.6 174.93 119.199 180.216 118.947 185.501C118.825 188.07 119.156 188.366 121.742 188.445C126.627 188.593 126.732 188.602 127.045 183.725C128.064 167.798 128.978 151.862 129.988 135.935C131.025 119.573 132.104 103.219 133.237 86.8652C133.611 81.501 135.692 79.115 140.987 78.2791C144.766 77.6869 148.615 77.2602 152.429 77.3125C158.847 77.3908 161.895 80.4212 162.504 86.8739C162.766 89.6866 162.888 92.5342 162.783 95.3469C161.895 119.129 161.007 142.91 159.953 166.675C159.648 173.528 158.812 180.364 158.203 187.443C158.655 187.478 159.352 187.574 160.04 187.583C163.889 187.6 167.729 187.6 171.578 187.583C174.025 187.583 174.356 187.13 174.339 184.605C174.304 179.824 174.121 175.026 174.391 170.254C175.619 148.597 177.125 126.957 178.249 105.3C179.302 85.0191 179.981 64.7119 180.844 44.4221C181.349 32.6053 181.845 20.7971 182.437 8.98027C182.707 3.53773 184.527 1.32588 189.891 0.472486C195.734 -0.459277 201.621 -0.137079 207.386 1.32588C214.222 3.06749 217.165 8.0485 217.548 14.6144C217.992 22.2862 218.262 29.9841 218.149 37.6646C217.992 47.9663 217.531 58.2592 216.956 68.5434C216.024 85.3413 214.666 102.13 213.908 118.937C213.29 132.487 213.29 146.063 213.002 159.621C212.898 164.768 212.933 169.931 212.584 175.069C212.393 177.917 211.539 180.729 210.991 183.56C210.86 184.248 210.738 184.927 210.564 185.893C221.937 185.606 233.031 185.319 244.656 185.023C243.855 183.96 243.42 183.246 242.854 182.663C240.694 180.416 238.43 178.256 236.34 175.949C235.791 175.348 235.73 174.303 235.452 173.458C236.349 173.345 237.263 173.075 238.125 173.18C238.961 173.284 239.788 173.693 240.546 174.111C244.987 176.532 248.827 179.719 252.076 183.586C254.792 186.825 254.566 190.456 251.092 192.825C247.399 195.35 243.394 197.432 239.423 199.513C238.038 200.244 236.392 200.131 235.347 198.564C234.311 197.014 234.912 195.629 236.009 194.427C236.923 193.435 237.968 192.572 238.961 191.658C238.918 191.467 238.865 191.266 238.822 191.075C237.942 191.075 237.063 191.014 236.201 191.083C222.686 192.207 209.18 193.487 195.647 194.462C159.578 197.057 123.449 197.492 87.3102 196.892C60.6896 196.448 34.0778 195.629 7.45723 194.958C6.08136 194.924 4.70548 194.758 3.34702 194.54C1.61412 194.262 0.0466666 193.644 -0.0404141 191.527C-0.110079 189.882 1.24838 188.802 3.62568 188.628C5.43696 188.497 7.25695 188.384 9.05951 188.436C10.984 188.497 11.6371 187.557 11.6023 185.789C11.5413 182.593 11.4194 179.397 11.4978 176.21C12.1509 148.579 12.5689 120.931 13.5964 93.3179C14.415 71.2865 15.9998 49.2812 17.2277 27.2585C17.2799 26.2919 17.2277 25.3166 17.2277 24.3413C16.9751 24.2542 16.7226 24.1671 16.4701 24.0801L16.5223 24.1062ZM184.301 96.775C182.994 130.345 181.984 156.225 180.983 182.097C180.783 187.252 180.208 187.504 185.973 187.156C191.18 186.843 196.414 186.877 201.63 186.564C205.287 186.337 205.644 185.71 205.453 182.071C205.252 178.378 204.904 174.669 205.035 170.985C205.609 153.874 206.245 136.771 207.029 119.668C207.699 105.178 208.518 90.6968 209.423 76.2152C210.468 59.487 211.348 42.7501 210.564 25.9871C210.364 21.7202 209.85 17.4706 209.38 13.2211C209.093 10.6261 207.316 9.1196 204.93 8.82352C200.637 8.29233 196.3 7.98755 191.972 7.85693C189.491 7.77855 188.646 8.71902 188.359 11.2618C187.749 16.6608 186.939 22.0685 186.73 27.4849C185.737 53.1476 184.919 78.8102 184.301 96.775ZM90.4625 141.804C90.4625 141.804 90.5496 141.804 90.5931 141.813C90.5931 143.485 90.6106 145.148 90.5931 146.82C90.4538 159.151 90.2971 171.49 90.1664 183.821C90.1229 187.748 90.149 187.887 93.9719 188.114C98.4565 188.375 102.959 188.427 107.452 188.436C112.189 188.454 112.085 188.384 112.076 183.725C112.076 174.947 112.024 166.161 112.294 157.392C112.955 135.857 113.905 114.33 114.479 92.7954C114.645 86.5866 114.035 80.3516 113.582 74.1427C113.373 71.2255 112.355 70.407 109.437 70.6769C105.327 71.0514 101.226 71.5826 97.1764 72.375C96.2273 72.5579 94.9385 73.986 94.8165 74.9613C93.789 83.5997 92.7005 92.2468 92.1867 100.929C91.3856 114.539 91.0111 128.176 90.4538 141.804H90.4625ZM64.0248 146.664C64.0771 146.664 64.138 146.664 64.1903 146.655C64.1903 140.777 64.2338 134.908 64.1816 129.03C64.1119 121.776 64.0248 114.522 63.8332 107.277C63.7462 104.055 63.0321 103.306 59.9582 104.264C55.43 105.675 50.954 107.416 46.748 109.593C45.1283 110.429 43.7437 112.676 43.2648 114.539C42.2982 118.31 41.7148 122.237 41.5406 126.13C40.9833 138.513 40.635 150.913 40.3215 163.305C40.1473 170.332 40.1996 177.377 40.1909 184.404C40.1909 187.504 40.3476 187.626 43.317 187.626C49.9178 187.626 56.5185 187.548 63.1192 187.67C65.2788 187.705 65.8013 186.991 65.7055 184.909C65.0785 172.161 64.5734 159.412 64.0335 146.664H64.0248ZM152.516 134.019C152.917 124.005 153.378 112.702 153.805 101.399C153.97 96.9056 154.04 92.4122 154.179 87.9189C154.24 85.9247 153.265 84.9233 151.332 84.9581C148.145 85.0104 144.958 85.1758 141.77 85.2455C139.785 85.2891 138.879 86.4124 138.697 88.2237C138.096 94.4238 137.295 100.624 136.998 106.842C135.753 133.061 136.075 159.351 133.489 185.501C133.315 187.287 133.907 188.149 135.666 188.114C141.1 188.018 146.525 187.879 151.959 187.766C153.204 187.739 153.3 186.956 153.178 185.972C152.943 183.96 152.56 181.94 152.56 179.92C152.507 165.055 152.534 150.182 152.534 134.019H152.516Z" fill="#111827"/>
<path d="M16.5223 24.1062C16.0782 24.62 15.5906 25.1076 15.19 25.6562C13.0304 28.5647 10.9056 31.4993 8.74602 34.4078C8.18871 35.1654 7.66622 36.0275 6.91733 36.5326C6.18585 37.0202 4.92318 37.5601 4.36587 37.2466C3.7563 36.907 3.29478 35.5312 3.45152 34.7387C3.74759 33.2845 4.37458 31.8302 5.14959 30.5501C7.9623 25.9087 10.7837 21.2761 13.8315 16.7914C14.9462 15.1543 16.5572 13.761 18.1856 12.5941C20.8589 10.687 23.7587 10.7828 25.5961 13.3082C29.2448 18.324 32.5539 23.6011 35.8107 28.8869C36.6205 30.2018 36.8034 32.0305 35.0531 33.1452C33.2766 34.2772 31.953 33.2496 30.9429 31.9521C29.4364 30.019 28.1128 27.929 26.6934 25.9175C26.0838 25.0554 25.422 24.2281 24.168 23.4269C23.959 24.6461 23.6891 25.8478 23.5584 27.0756C20.8938 53.0692 19.039 79.1063 19.0041 105.257C18.9693 131.668 18.9258 158.08 18.8822 184.491C18.8822 187.661 18.8822 187.722 22.139 187.748C24.8211 187.774 27.5032 187.609 30.1853 187.609C32.0401 187.609 32.7019 186.755 32.7455 184.935C32.9109 178.483 33.0328 172.021 33.4421 165.577C34.5393 148.353 35.7236 131.128 36.9863 113.912C37.3259 109.262 39.7642 105.518 43.8918 103.498C49.0034 100.998 54.3066 98.7778 59.7143 97.0188C65.4181 95.164 69.3455 97.5152 71.0348 103.228C71.6444 105.291 72.1059 107.495 72.1146 109.637C72.1756 131.041 72.1495 152.446 72.0711 173.841C72.0537 177.682 71.7489 181.522 71.4876 185.362C71.3744 187.017 71.9405 187.783 73.6559 187.757C75.833 187.722 78.01 187.731 80.1783 187.853C82.1202 187.966 82.634 187.078 82.6688 185.258C82.8865 174.808 83.0432 164.358 83.5222 153.926C84.602 130.301 85.8472 106.685 87.0577 83.0598C87.2144 79.9423 87.5192 76.8335 87.824 73.7334C88.3203 68.7002 90.8979 65.6785 95.8441 64.7816C100.337 63.9717 104.866 63.3099 109.411 62.918C116.143 62.3433 120.148 65.5304 121.289 72.2444C121.829 75.4489 122.317 78.7319 122.23 81.9626C121.489 111.187 120.627 140.411 119.756 169.635C119.6 174.93 119.199 180.216 118.947 185.501C118.825 188.07 119.156 188.366 121.742 188.445C126.627 188.593 126.732 188.602 127.045 183.725C128.064 167.798 128.978 151.862 129.988 135.935C131.025 119.573 132.104 103.219 133.237 86.8652C133.611 81.501 135.692 79.115 140.987 78.2791C144.766 77.6869 148.615 77.2602 152.429 77.3125C158.847 77.3908 161.895 80.4212 162.504 86.8739C162.766 89.6866 162.888 92.5342 162.783 95.3469C161.895 119.129 161.007 142.91 159.953 166.675C159.648 173.528 158.812 180.364 158.203 187.443C158.655 187.478 159.352 187.574 160.04 187.583C163.889 187.6 167.729 187.6 171.578 187.583C174.025 187.583 174.356 187.13 174.339 184.605C174.304 179.824 174.121 175.026 174.391 170.254C175.619 148.597 177.125 126.957 178.249 105.3C179.302 85.0191 179.981 64.7119 180.844 44.4221C181.349 32.6053 181.845 20.7971 182.437 8.98027C182.707 3.53773 184.527 1.32588 189.891 0.472486C195.734 -0.459277 201.621 -0.137079 207.386 1.32588C214.222 3.06749 217.165 8.0485 217.548 14.6144C217.992 22.2862 218.262 29.9841 218.149 37.6646C217.992 47.9663 217.531 58.2592 216.956 68.5434C216.024 85.3413 214.666 102.13 213.908 118.937C213.29 132.487 213.29 146.063 213.002 159.621C212.898 164.768 212.933 169.931 212.584 175.069C212.393 177.917 211.539 180.729 210.991 183.56C210.86 184.248 210.738 184.927 210.564 185.893C221.937 185.606 233.031 185.319 244.656 185.023C243.855 183.96 243.42 183.246 242.854 182.663C240.694 180.416 238.43 178.256 236.34 175.949C235.791 175.348 235.73 174.303 235.452 173.458C236.349 173.345 237.263 173.075 238.125 173.18C238.961 173.284 239.788 173.693 240.546 174.111C244.987 176.532 248.827 179.719 252.076 183.586C254.792 186.825 254.566 190.456 251.092 192.825C247.399 195.35 243.394 197.432 239.423 199.513C238.038 200.244 236.392 200.131 235.347 198.564C234.311 197.014 234.912 195.629 236.009 194.427C236.923 193.435 237.968 192.572 238.961 191.658C238.918 191.467 238.865 191.266 238.822 191.075C237.942 191.075 237.063 191.014 236.201 191.083C222.686 192.207 209.18 193.487 195.647 194.462C159.578 197.057 123.449 197.492 87.3102 196.892C60.6896 196.448 34.0778 195.629 7.45723 194.958C6.08136 194.924 4.70548 194.758 3.34702 194.54C1.61412 194.262 0.0466666 193.644 -0.0404141 191.527C-0.110079 189.882 1.24838 188.802 3.62568 188.628C5.43696 188.497 7.25695 188.384 9.05951 188.436C10.984 188.497 11.6371 187.557 11.6023 185.789C11.5413 182.593 11.4194 179.397 11.4978 176.21C12.1509 148.579 12.5689 120.931 13.5964 93.3179C14.415 71.2865 15.9998 49.2812 17.2277 27.2585C17.2799 26.2919 17.2277 25.3166 17.2277 24.3413C16.9751 24.2542 16.7226 24.1671 16.4701 24.0801L16.5223 24.1062ZM184.301 96.775C182.994 130.345 181.984 156.225 180.983 182.097C180.783 187.252 180.208 187.504 185.973 187.156C191.18 186.843 196.414 186.877 201.63 186.564C205.287 186.337 205.644 185.71 205.453 182.071C205.252 178.378 204.904 174.669 205.035 170.985C205.609 153.874 206.245 136.771 207.029 119.668C207.699 105.178 208.518 90.6968 209.423 76.2152C210.468 59.487 211.348 42.7501 210.564 25.9871C210.364 21.7202 209.85 17.4706 209.38 13.2211C209.093 10.6261 207.316 9.1196 204.93 8.82352C200.637 8.29233 196.3 7.98755 191.972 7.85693C189.491 7.77855 188.646 8.71902 188.359 11.2618C187.749 16.6608 186.939 22.0685 186.73 27.4849C185.737 53.1476 184.919 78.8102 184.301 96.775ZM90.4625 141.804C90.4625 141.804 90.5496 141.804 90.5931 141.813C90.5931 143.485 90.6106 145.148 90.5931 146.82C90.4538 159.151 90.2971 171.49 90.1664 183.821C90.1229 187.748 90.149 187.887 93.9719 188.114C98.4565 188.375 102.959 188.427 107.452 188.436C112.189 188.454 112.085 188.384 112.076 183.725C112.076 174.947 112.024 166.161 112.294 157.392C112.955 135.857 113.905 114.33 114.479 92.7954C114.645 86.5866 114.035 80.3516 113.582 74.1427C113.373 71.2255 112.355 70.407 109.437 70.6769C105.327 71.0514 101.226 71.5826 97.1764 72.375C96.2273 72.5579 94.9385 73.986 94.8165 74.9613C93.789 83.5997 92.7005 92.2468 92.1867 100.929C91.3856 114.539 91.0111 128.176 90.4538 141.804H90.4625ZM64.0248 146.664C64.0771 146.664 64.138 146.664 64.1903 146.655C64.1903 140.777 64.2338 134.908 64.1816 129.03C64.1119 121.776 64.0248 114.522 63.8332 107.277C63.7462 104.055 63.0321 103.306 59.9582 104.264C55.43 105.675 50.954 107.416 46.748 109.593C45.1283 110.429 43.7437 112.676 43.2648 114.539C42.2982 118.31 41.7148 122.237 41.5406 126.13C40.9833 138.513 40.635 150.913 40.3215 163.305C40.1473 170.332 40.1996 177.377 40.1909 184.404C40.1909 187.504 40.3476 187.626 43.317 187.626C49.9178 187.626 56.5185 187.548 63.1192 187.67C65.2788 187.705 65.8013 186.991 65.7055 184.909C65.0785 172.161 64.5734 159.412 64.0335 146.664H64.0248ZM152.516 134.019C152.917 124.005 153.378 112.702 153.805 101.399C153.97 96.9056 154.04 92.4122 154.179 87.9189C154.24 85.9247 153.265 84.9233 151.332 84.9581C148.145 85.0104 144.958 85.1758 141.77 85.2455C139.785 85.2891 138.879 86.4124 138.697 88.2237C138.096 94.4238 137.295 100.624 136.998 106.842C135.753 133.061 136.075 159.351 133.489 185.501C133.315 187.287 133.907 188.149 135.666 188.114C141.1 188.018 146.525 187.879 151.959 187.766C153.204 187.739 153.3 186.956 153.178 185.972C152.943 183.96 152.56 181.94 152.56 179.92C152.507 165.055 152.534 150.182 152.534 134.019H152.516Z" stroke="#111827" stroke-width="3" mask="url(#path-5-outside-1_9000_6241)"/>
</svg>
