<svg width="154" height="218" viewBox="0 0 154 218" fill="none" xmlns="http://www.w3.org/2000/svg">
<path d="M140.965 124.425C141.145 143.403 141.385 162.381 141.471 181.36C141.502 188.067 141.045 194.777 141.012 201.486C140.964 211.109 134.488 216.966 126.874 217.154C111.273 217.54 95.6656 217.956 80.0632 217.867C61.9845 217.764 43.9062 217.211 25.8319 216.668C21.5722 216.418 17.3278 215.897 13.1182 215.107C7.98625 214.291 2.97108 207.536 2.69542 201.113C2.43288 194.931 2.22034 188.74 2.15077 182.552C1.82523 153.756 1.53241 124.961 1.2725 96.1645C1.11236 79.2483 1.05139 62.3301 0.824955 45.4153C0.759321 40.6199 0.462587 35.8101 2.1474 31.3098C3.05245 28.6858 4.28198 26.2256 5.79797 24.0054C7.66261 21.4545 10.4133 20.4908 13.3531 20.398C19.413 20.2071 25.4836 20.1615 31.5291 19.7026C52.864 18.0807 74.1955 19.3498 95.5298 19.5309C100.069 19.5694 103.516 21.283 106.862 24.9381C113.695 32.4023 121.027 39.2613 128.111 46.4236C130.807 49.1504 133.309 52.136 136.046 54.8047C138.572 57.2666 139.546 60.3671 139.641 64.0124C139.809 70.4637 140.074 76.9135 140.153 83.3671C140.32 97.0544 140.393 110.743 140.504 124.432L140.965 124.425Z" fill="#1BB6F9"/>
<path d="M152.308 106.588C152.488 125.309 152.731 144.027 152.814 162.748C152.844 169.585 152.391 176.424 152.341 183.262C152.272 192.898 145.686 198.669 138.129 198.843C122.864 199.193 107.594 199.624 92.3285 199.532C73.9121 199.421 55.4973 198.883 37.0857 198.344C32.8253 198.105 28.5807 197.581 24.3733 196.774C19.244 195.93 14.2136 189.132 14.0312 182.703C13.5717 166.449 13.0324 150.193 12.8768 133.934C12.5349 98.1602 12.468 62.3868 12.1346 26.617C12.0834 21.1204 12.2 15.7925 14.1933 10.7193C15.5716 7.20456 17.4521 4.1683 20.8381 2.9849C22.3347 2.46453 23.8818 2.16015 25.4437 2.07909C31.163 1.78701 36.896 1.78897 42.6088 1.40029C62.3705 0.0417966 82.1296 0.55274 101.891 1.30595C104.695 1.41237 107.503 1.56104 110.306 1.49463C112.234 1.46788 114.093 2.32138 115.476 3.86859C124.712 13.297 133.942 22.7322 143.168 32.1742C144.511 33.547 145.775 35.0323 147.191 36.2934C150.145 38.9274 150.943 42.5224 150.998 46.5646C151.211 62.0574 151.474 77.5489 151.684 93.0418C151.746 97.5587 151.694 102.078 151.694 106.596L152.308 106.588ZM104.998 10.8667C103.044 10.6848 101.389 10.426 99.7293 10.3935C85.5853 10.1183 71.4406 9.86862 57.2957 9.64469C50.9016 9.5428 44.5069 9.50054 38.1116 9.45601C34.8627 9.43262 31.6068 9.31292 28.3658 9.50462C23.7373 9.77858 22.3772 11.326 21.5515 16.729C20.7877 21.4291 20.6123 26.2304 21.0304 30.9876C21.29 33.681 21.4232 36.3886 21.4294 39.0986C21.499 84.798 21.5527 130.498 21.5903 176.196C21.5606 177.228 21.6012 178.261 21.7117 179.286C22.5354 185.179 25.2297 188.735 30.8171 188.993C52.4809 189.998 74.1451 189.993 95.8163 189.572C106.706 189.36 117.596 189.253 128.486 189.11C131.177 189.074 133.874 189.192 136.559 189.045C141.39 188.781 143.648 186.101 143.6 180.464C143.522 170.661 143.302 160.86 143.128 151.059C143.027 145.381 142.942 139.701 142.777 134.025C142.412 121.513 141.824 109.006 141.657 96.4908C141.471 82.5519 141.654 68.6073 141.666 54.6646C141.666 53.6691 141.585 52.6737 141.539 51.6457C141.167 51.534 140.787 51.4585 140.404 51.4195C133.558 51.578 126.712 51.8167 119.865 51.8801C117.846 51.8984 115.833 51.6482 113.864 51.135C109.306 49.9372 107.919 48.0166 107.463 42.6378C107.092 38.2732 106.83 33.8958 106.492 29.5267C106.026 23.4958 105.53 17.4659 104.998 10.8667ZM117.098 42.5471L137.233 41.1054L113.68 16.4976C114.885 25.6712 115.964 33.8912 117.1 42.5501L117.098 42.5471Z" fill="#111827"/>
<path d="M48.9194 83.1429C49.1281 84.7369 49.4083 86.2539 49.5008 87.7859C49.5934 88.9263 49.5225 90.0765 49.2908 91.1897C49.1127 92.0765 48.6779 92.8675 48.058 93.4343C47.4381 94.0003 46.6695 94.3082 45.8778 94.3075C45.088 94.2395 44.3371 93.8863 43.7312 93.2999C43.1253 92.7135 42.6952 91.9226 42.5022 91.0395C42.3217 89.9007 42.2374 88.7437 42.2503 87.586C42.2116 86.4456 42.2416 85.3014 42.2416 83.9731C40.8266 83.6078 39.5122 83.3693 38.2527 82.9165C36.5269 82.3769 34.8439 81.6697 33.2218 80.8033C31.281 79.6712 30.5826 77.5671 31.1733 75.6629C31.7122 73.927 33.2297 72.9728 35.3011 73.1902C37.2012 73.3894 39.0888 73.8282 40.9896 73.9007C42.6645 73.9767 44.3415 73.8304 45.9874 73.465C47.0678 73.1327 48.0798 72.5554 48.9633 71.7669C49.5456 71.3552 49.9961 70.7378 50.2475 70.0069C50.4989 69.2761 50.5378 68.4709 50.3581 67.7126C50.2022 67.0164 49.8638 66.3924 49.3886 65.9253C48.9135 65.4582 48.3248 65.1708 47.7026 65.102C46.7101 64.9142 45.7011 64.8699 44.699 64.9701C43.2453 65.0893 41.8053 65.4502 40.3515 65.5641C35.1972 65.9702 31.38 61.9019 31.5979 55.9577C31.8126 50.0913 34.0854 45.5909 38.9699 43.1887C39.5835 42.8868 40.2097 42.6181 40.9527 42.2777C41.1594 40.6928 41.3683 39.0533 41.5869 37.4163C41.7969 35.8457 42.4867 34.784 43.9437 34.6104C44.621 34.478 45.3169 34.6403 45.8957 35.0659C46.4746 35.4915 46.8948 36.1496 47.0745 36.9121C47.4854 38.6359 47.813 40.3841 48.0557 42.1495C52.8181 44.5985 53.2309 45.3371 51.806 49.5182C50.8933 49.3465 49.9728 49.2335 49.0492 49.18C47.0553 49.1724 44.9932 48.9297 43.0813 49.418C39.5837 50.3101 38.3596 52.7986 38.8151 57.6823C39.6027 57.6823 40.4349 57.7271 41.2645 57.6742C43.5 57.5309 45.744 57.1038 47.9657 57.2284C52.5975 57.4887 56.6813 61.0327 57.9271 65.6599C59.3494 70.9429 57.9166 75.3673 54.4399 78.8909C52.87 80.481 50.9442 81.6086 48.9194 83.1429Z" fill="#111827"/>
<path d="M78.2371 136.227C89.6915 136.227 101.146 136.233 112.6 136.245C113.945 136.211 115.289 136.356 116.604 136.681C118.351 137.17 119.365 138.679 119.179 140.211C119.111 140.994 118.815 141.727 118.338 142.291C117.861 142.854 117.233 143.217 116.554 143.317C115.016 143.684 113.451 143.893 111.88 143.941C90.4292 143.987 68.9784 143.995 47.5271 143.966C45.6237 143.966 43.7149 143.734 41.8168 143.522C41.0489 143.436 40.1191 143.359 39.5908 142.837C38.8964 142.153 38.0888 141.002 38.14 140.113C38.1905 139.245 39.1476 138.251 39.9123 137.698C40.5089 137.266 41.4266 137.343 42.2037 137.326C54.2155 137.071 66.2264 136.829 78.2364 136.599L78.2371 136.227Z" fill="#111827"/>
<path d="M36.7155 125.091C36.0467 122.217 36.7812 121.084 38.6131 120.869C41.289 120.553 43.9637 120.189 46.6474 120.01C67.7028 118.622 88.7644 117.449 109.864 117.641C112.104 117.653 114.34 117.873 116.549 118.3C118.629 118.711 119.518 120.096 119.344 121.911C119.176 123.663 117.962 124.825 115.991 124.98C114.875 125.067 113.748 124.98 112.626 124.992C88.7237 125.165 64.8214 125.333 40.9189 125.496C39.5157 125.504 38.1116 125.232 36.7155 125.091Z" fill="#111827"/>
<path d="M37.3522 106.769C37.1521 103.489 37.2827 103.243 39.1815 102.926C39.5163 102.883 39.8526 102.862 40.1894 102.863C48.9377 102.591 57.6869 102.342 66.4346 102.043C80.4551 101.565 94.4744 101.033 108.496 100.578C110.847 100.502 113.207 100.667 115.561 100.777C116.246 100.735 116.921 100.997 117.442 101.511C117.964 102.025 118.294 102.749 118.363 103.535C118.552 104.943 117.556 106.183 115.845 106.582C114.74 106.803 113.619 106.905 112.497 106.884C103.405 106.999 94.3123 107.035 85.2201 107.192C73.997 107.384 62.7782 107.705 51.5555 107.886C48.0769 107.942 44.5982 107.78 41.1249 107.591C39.8522 107.418 38.5915 107.145 37.3522 106.769Z" fill="#111827"/>
<path d="M52.4773 164.528C49.5566 164.528 46.6358 164.544 43.7158 164.518C42.9304 164.537 42.1458 164.454 41.3766 164.272C40.0232 163.9 39.0577 162.747 39.2966 161.236C39.4666 160.162 40.3778 159.123 41.1628 158.341C41.594 157.91 42.4432 157.981 43.1107 157.923C48.8169 157.424 54.5236 156.922 60.2337 156.48C61.5776 156.371 62.9272 156.393 64.2676 156.548C64.8927 156.603 65.4839 156.898 65.9457 157.386C66.4075 157.873 66.7134 158.525 66.8145 159.237C67.1466 160.923 66.7487 162.473 65.4124 163.227C64.2125 163.907 62.9066 164.304 61.5714 164.396C58.5464 164.563 55.5102 164.45 52.4779 164.45L52.4773 164.528Z" fill="#111827"/>
</svg>
