<svg xmlns="http://www.w3.org/2000/svg" width="200" height="80" viewBox="0 0 200 80">
    <path d="m152.817,77.611c-.311-1.631-.685-2.824-.74-4.045-.087-1.828-.421-4.008.265-5.398.522-1.063,2.508-1.696,3.754-1.529,2.383.326,4.829,1.016,6.995,2.209,1.192.661,2.189,2.526,2.633,4.11.163.588-1.347,2.33-2.344,2.806-1.908.904-3.965,1.445-6.006,1.799-1.652.28-3.366.056-4.542.056l-.016-.009h.001Z" fill="#1bb6f9"/>
    <path d="m5.761,67.025c2.644.269,5.326.256,7.924.958,1.129.304,2.072,2.101,3.108,3.223-.75,1.226-1.36,3.083-2.289,3.573-2.482,1.308-5.071,2.276-7.662,2.919-2.226.549-4.446-.35-5.899-3.083-.695-1.308-1.151-3.678-.85-5.149.248-1.19,1.74-2.066,2.791-2.521.882-.385,1.909.046,2.876.105v-.024Z" fill="#1bb6f9"/>
    <path d="m136.711,76.306c-3.017-.256-5.732-1.33-6.971-4.731-.524-1.425-.278-3.686.333-5.149.754-1.824,2.47-1.653,3.947-.845,1.787.988,3.692,1.815,5.28,3.164,1.057.903,2.501,2.898,2.255,3.848-.365,1.425-2.009,2.451-3.207,3.478-.405.343-1.12.171-1.635.238h-.001Z" fill="#1bb6f9"/>
    <path d="m59.133,80c-2.362-1.868-4.586-3.105-6.166-5.079-.771-.958-.771-3.491-.312-4.939.351-1.086,1.991-2.184,3.064-2.206,3.113-.059,6.255.221,9.348.748,3.308.56,4.449,4.238,1.912,6.76-2.108,2.09-4.986,3.059-7.845,4.716h-.001Z" fill="#1bb6f9"/>
    <path d="m85.741,79.171c-2.166-1.588-4.518-2.919-6.391-4.904-.8-.84-1.19-3.409-.703-4.506.586-1.308,2.313-2.591,3.552-2.604,2.605-.024,5.317.433,7.777,1.436,1.22.503,2.742,2.639,2.752,4.04,0,1.623-1.23,3.678-2.42,4.775-.995.923-2.712.735-4.098,1.039-.156.234-.303.479-.458.713l-.009.011h-.001Z" fill="#1bb6f9"/>
    <path d="m183.014,79.171c-2.166-1.588-4.518-2.919-6.391-4.904-.8-.84-1.19-3.409-.703-4.506.586-1.308,2.313-2.591,3.552-2.604,2.605-.024,5.317.433,7.777,1.436,1.22.503,2.742,2.639,2.752,4.04,0,1.623-1.23,3.678-2.42,4.775-.995.923-2.712.735-4.098,1.039-.156.234-.303.479-.458.713l-.009.011h-.001Z" fill="#1bb6f9"/>
    <path d="m34.155,77.665c-1.786-1.203-4.136-2.3-5.893-4.191-.791-.853-.898-3.596-.351-4.926.42-1.016,2.351-1.611,3.59-1.553,2.313.105,4.664.56,6.869,1.378,1.258.468,3.044,1.81,3.181,2.989.156,1.354-.976,3.421-2.059,4.343-1.22,1.039-2.995,1.156-5.347,1.95,0,0,.01.011.01.011Z" fill="#1bb6f9"/>
    <path d="m110.611,76.992c-2.283-1.529-4.81-2.709-6.742-4.728-.868-.91-1.132-3.818-.577-5.171.44-1.074,2.577-1.67,3.913-1.565,1.755.14,3.503,1.063,5.19,1.833,2.147.981,4.342,2.311,3.786,5.639-.556,3.258-3.016,3.048-5.152,3.105-.146.304-.282.595-.429.899l.009-.011h.001Z" fill="#1bb6f9"/>
</svg>
