<svg width="185" height="185" viewBox="0 0 185 185" fill="none" xmlns="http://www.w3.org/2000/svg">
<path d="M118.8 90.8C112.4 72.2 106.2 53.6 100.2 34.9C99.8002 33.6 100.9 30.9 102 30.3C108.6 26.6 114.9 29.8 116 37.3C118.5 54 120.8 70.7 123.1 87.5C123.4 89.3 122.9 91.2 122.6 95.3C120.2 92.5 119.1 91.8 118.8 90.8Z" fill="#FC787D"/>
<path d="M151.9 96L150.2 95.1C151 92.2 151.6 89.2 152.7 86.5C157.8 74.7 163.1 62.9 168.4 51.1C170 47.5 170.7 42.9 176.6 45.9C183.8 49.6 185.5 52.8 181.5 58.4C173.7 69.6 165.4 80.4 157.1 91.3C155.7 93.1 153.6 94.4 151.9 96Z" fill="#FC787D"/>
<path d="M66.5999 149.8C66.7999 150.6 66.9999 151.4 67.0999 152.2C64.9999 153.1 62.9999 154.3 60.7999 154.8C46.5999 158 32.2999 161 18.1999 164.3C11.0999 165.9 8.69986 164.1 10.7999 157.4C11.5999 154.8 14.9999 151.6 17.4999 151.4C31.4999 150.1 45.5999 149.6 59.5999 148.9C61.7999 148.9 64.1999 149.6 66.5999 149.8Z" fill="#FC787D"/>
<path d="M87.6999 113.6C83.6999 110.2 80.0999 106.5 75.9999 103.1C67.0999 95.6999 57.9999 88.7999 49.1999 81.3999C44.8999 77.7999 45.2999 72.9999 49.8999 68.4999C54.0999 64.4999 56.2999 68.5999 58.1999 70.9999C68.9999 84.0999 79.5999 97.3999 90.1999 110.8C90.6999 111.4 90.5999 112.6 90.7999 114C89.3999 113.8 88.1999 114 87.6999 113.6Z" fill="#FC787D"/>
</svg>
