<svg width="200" height="90" viewBox="0 0 200 90" fill="none" xmlns="http://www.w3.org/2000/svg">
<path d="M78.6535 89.2045C63.8383 89.2045 49.2503 88.1083 35.2986 84.5064C30.0723 83.1596 24.8916 81.437 20.3017 79.3071C-2.69369 68.658 -6.73837 50.8051 11.1671 36.2722C23.3464 26.4061 37.9799 18.2313 54.522 12.0298C88.5151 -0.717836 124.19 -3.72464 161.228 4.88861C174.452 7.95807 185.677 13.1573 193.13 21.5513C201.992 31.5427 202.583 41.9726 193.13 51.6194C187.313 57.5078 179.906 62.9889 171.771 67.4052C144.595 82.1573 113.192 88.9227 78.6989 89.2045H78.6535ZM82.1528 84.9762C86.561 84.6943 93.8776 84.5064 101.013 83.7234C131.37 80.372 158.592 72.2912 180.224 56.8813C185.586 53.0602 190.358 48.0488 192.494 43.0062C195.039 37.0239 198.311 29.6948 186.268 25.6544C185.814 25.4978 185.541 25.0906 185.223 24.8087C174.452 15.663 160.137 10.6517 143.504 9.46147C103.83 6.61126 66.8831 12.6562 33.8443 28.2227C25.6642 32.1065 18.3475 37.3997 12.485 42.9749C2.75975 52.2459 4.44119 62.8637 16.2115 71.0071C21.0742 74.3898 27.2093 77.24 33.4808 79.2445C47.887 83.8487 63.5202 84.7883 82.0619 85.0075L82.1528 84.9762ZM130.37 3.57314C105.557 1.69388 82.1073 4.95126 59.93 12.7188C82.7436 7.23768 106.102 3.69842 130.37 3.57314Z" fill="#00CEB3"/>
</svg>
