<svg width="135" height="200" viewBox="0 0 135 200" fill="none" xmlns="http://www.w3.org/2000/svg">
<g clip-path="url(#clip0_6283_3124)">
<path d="M133.996 41.0975C133.873 51.116 133.745 61.4754 133.497 71.6624C133.341 78.0841 133.077 84.6073 132.821 90.9168C132.707 93.6342 132.6 96.3509 132.498 99.0675L132.625 99.4275C132.565 104.849 132.51 110.27 132.459 115.691L132.458 115.764C132.337 128.502 132.212 141.672 131.932 154.624C131.735 163.765 131.272 174.37 128.256 184.544C127.709 186.438 127.021 188.287 126.197 190.078C123.975 194.834 120.441 197.437 115.695 197.818C113.871 197.965 112.048 198.123 110.224 198.28C104.343 198.791 98.2619 199.318 92.2673 199.418C85.3012 199.535 78.0946 199.594 70.3656 199.594C63.0722 199.594 55.3137 199.545 46.8412 199.441C38.7668 199.342 32.6432 198.556 26.9995 196.892C20.4458 194.961 16.3741 190.768 14.5521 184.073C13.2433 179.115 12.6329 173.999 12.7385 168.873C12.8575 156.809 12.9799 142.541 12.9899 128.183C12.9937 122.72 12.9495 117.164 12.9068 111.79L12.9062 111.714C12.8507 104.666 12.7933 97.3796 12.8435 90.2129C12.8786 85.3219 13.1516 80.3576 13.417 75.5528C13.5215 73.6606 13.6253 71.7691 13.716 69.877C13.7946 68.2517 13.8641 66.6234 13.9335 64.9959L13.9354 64.9513C14.1301 60.4143 14.3313 55.7243 14.7152 51.1222C15.2795 44.3588 15.9521 37.1355 17.0404 30.1189C18.4628 20.9485 24.2281 15.2788 33.712 13.7215C40.2968 12.6531 46.9657 12.1936 53.6348 12.3487C69.9462 12.7056 86.5237 13.3523 102.554 13.9777L102.556 13.9778L111.945 14.3431C115.552 14.4811 120.248 14.9349 124.589 17.2344C129.949 20.0738 133.029 24.6765 133.744 30.9152C133.971 32.8772 134.072 34.8516 134.049 36.8267L133.996 41.0975Z" fill="#FC787D"/>
</g>
<g clip-path="url(#clip1_6283_3124)">
<path d="M121.877 60.0423C122.125 49.8553 122.253 39.4959 122.376 29.4774L122.429 25.2065C122.452 23.2315 122.351 21.2571 122.124 19.2951C121.409 13.0564 118.328 8.4537 112.968 5.61427C108.628 3.31482 103.932 2.86101 100.325 2.72297L90.9364 2.35765C74.905 1.73226 58.3267 1.08552 42.0147 0.728591C35.3456 0.573477 28.6767 1.03296 22.0918 2.10134C12.608 3.65872 6.84269 9.3284 5.42031 18.4988C4.33197 25.5153 3.65943 32.7387 3.09505 39.5021C2.7099 44.1193 2.50863 48.8249 2.31339 53.3757C2.24399 55.0033 2.17446 56.6316 2.09591 58.2568C2.00515 60.149 1.90136 62.0405 1.79687 63.9326C1.53146 68.7375 1.25846 73.7018 1.22338 78.5928C1.17304 85.7855 1.23101 93.0988 1.28669 100.17C1.3294 105.544 1.37355 111.1 1.36974 116.563C1.35982 130.92 1.23734 145.189 1.11836 157.252C1.01283 162.379 1.62321 167.495 2.93195 172.453C4.75397 179.148 8.8257 183.341 15.3793 185.271C21.0231 186.936 27.1467 187.722 35.2211 187.821C43.6936 187.925 51.4521 187.974 58.7455 187.974C66.4744 187.974 73.6811 187.915 80.6472 187.798C86.6418 187.698 92.7233 187.171 98.6043 186.66C100.428 186.502 102.251 186.345 104.075 186.198C108.821 185.817 112.355 183.214 114.577 178.458C115.401 176.667 116.089 174.818 116.636 172.924C119.652 162.75 120.115 152.145 120.312 143.003C120.592 130.027 120.717 116.832 120.838 104.071C120.89 98.6495 120.945 93.2285 121.005 87.8074L120.878 87.4474C120.98 84.7308 121.087 82.0141 121.201 79.2967C121.457 72.9872 121.721 66.464 121.877 60.0423ZM110.783 158.001L110.166 160.99C109.286 165.264 108.376 169.684 107.327 173.989C106.586 177.03 104.517 178.677 101.176 178.884C98.6218 179.043 96.0272 179.248 93.518 179.446C88.746 179.823 83.8107 180.213 78.9578 180.297C63.6094 180.562 49.9163 180.57 37.095 180.317C31.2919 180.204 24.478 179.779 17.9373 177.503C14.7158 176.382 12.8144 174.423 11.9511 171.34L11.8926 171.13C10.8424 167.378 9.75716 163.503 10.3025 159.062C21.0561 158.82 31.9372 158.355 42.4613 157.905C64.7183 156.954 87.7293 155.973 110.299 157.089C110.388 157.262 110.477 157.415 110.555 157.551C110.648 157.692 110.725 157.843 110.783 158.001ZM10.4801 151.558C10.4366 151.245 10.3906 150.948 10.3456 150.669C10.2213 150.018 10.1528 149.357 10.1412 148.693L10.3382 137.29C10.67 117.946 11.0133 97.9441 11.4305 78.2732C11.7233 64.4383 12.0402 50.8933 12.6679 37.2339C12.999 32.1038 13.6018 26.9949 14.4733 21.9286L14.7913 19.8525C14.9956 18.0261 15.772 16.3108 17.0093 14.9519C18.2468 13.593 19.882 12.66 21.6814 12.286L22.6806 12.0252C24.915 11.3342 27.2275 10.9276 29.5637 10.8149H29.6102C45.7788 10.8759 62.5423 11.0658 80.8661 11.3946C87.393 11.512 94.466 11.8178 103.125 12.357C110.882 12.8405 113.916 15.9926 113.945 23.6003C114 37.9904 113.725 52.6245 113.46 66.7774L113.389 70.5145C113.273 76.7517 113.077 83.0926 112.888 89.2237C112.736 94.2436 112.572 99.4343 112.456 104.541C112.257 113.342 112.096 122.291 111.94 130.944C111.847 136.1 111.752 141.255 111.654 146.41C111.631 146.924 111.577 147.436 111.491 147.943C111.461 148.155 111.428 148.38 111.396 148.621C86.9095 147.654 62.1235 148.96 38.1504 150.223C29.0914 150.699 19.7282 151.191 10.4801 151.558Z" fill="#111827"/>
<path d="M46.4084 113.522C45.0774 113.188 43.7053 113.049 42.3344 113.108L41.6476 113.102C39.1995 113.069 36.7271 113.076 34.1073 113.082C33.1075 113.082 32.0793 113.087 31.0116 113.088C31.0116 112.003 31.0185 110.96 31.0246 109.946C31.0384 107.488 31.0513 105.167 30.9934 102.864C30.9232 100.087 30.5174 97.5186 28.051 97.5186H28.0365C25.8049 97.5285 25.1862 99.654 24.9429 102.835C24.8079 104.605 24.714 106.405 24.6286 108.146C24.5524 109.632 24.4761 111.117 24.3762 112.6C24.0185 117.8 25.9307 120.271 30.7684 120.863C33.762 121.203 36.7733 121.362 39.786 121.338C40.8721 121.338 41.9254 121.324 42.9291 121.305C44.564 121.216 46.1351 120.641 47.4403 119.653C47.9545 119.21 48.363 118.657 48.6365 118.035C48.9098 117.414 49.041 116.739 49.0204 116.061C48.9037 114.965 47.3976 113.825 46.4084 113.522Z" fill="#111827"/>
<path d="M81.8728 58.8352C82.1534 58.823 82.4249 58.8001 82.7117 58.8115C85.2079 58.8161 87.7057 58.8115 90.2713 58.8115H92.9407V60.1133C92.9407 61.1277 92.9468 61.9766 92.9346 62.8247C92.9208 63.7773 92.8957 64.7314 92.8705 65.684C92.8209 67.5693 92.769 69.5186 92.814 71.4383C92.8804 74.2342 94.1159 75.9662 96.2049 76.1889C96.3292 76.2026 96.4535 76.2095 96.5786 76.2096C98.5326 76.2096 100.087 74.5272 100.58 71.8105C100.657 71.404 100.699 70.9917 100.705 70.578C100.715 69.4523 100.732 68.3267 100.75 67.2002C100.794 64.4546 100.838 61.6211 100.75 58.8305C100.674 56.3602 100.05 54.6152 98.8498 53.4918C97.6494 52.3684 95.8884 51.8834 93.4478 51.9734C89.7473 52.1122 85.9958 52.431 82.3677 52.7361L80.9591 52.8551C80.0744 52.8352 79.2156 53.1514 78.5551 53.7398C77.8253 54.5506 77.418 55.6011 77.4111 56.6921C77.4874 57.531 78.6871 58.4065 79.5138 58.6635C80.2841 58.855 81.0826 58.9131 81.8728 58.8352Z" fill="#111827"/>
<path d="M100.689 111.485C100.318 109.558 100.038 107.575 99.767 105.659C99.6083 104.535 99.4497 103.413 99.2728 102.293C99.2369 102.07 99.2079 101.84 99.1797 101.607C99.1332 100.756 98.9136 99.9241 98.5337 99.1615C97.9854 98.2401 96.9703 97.1022 95.9132 96.9131C95.5791 96.8452 95.2337 96.8528 94.9027 96.9344C94.5709 97.0168 94.262 97.1709 93.9974 97.3867C93.6732 97.6735 93.4147 98.0266 93.2385 98.4217C93.0631 98.8175 92.9739 99.2461 92.9784 99.6793C92.97 101.449 93.0555 103.219 93.2339 104.98L93.3102 105.922C93.4292 107.4 93.5809 108.857 93.7564 110.542C93.8265 111.213 93.8997 111.915 93.9752 112.663C93.2683 112.712 92.6024 112.759 91.9725 112.804C90.3861 112.917 88.9981 113.016 87.6016 113.086C86.906 113.121 86.2067 113.124 85.5081 113.126C84.2451 113.101 82.9821 113.168 81.729 113.327C79.4143 113.677 77.9919 115.226 78.0232 117.369C78.053 119.53 79.4525 120.938 81.8625 121.232C83.5716 121.449 85.2922 121.561 87.0143 121.569C90.0368 121.605 93.044 121.134 95.9101 120.175C99.9782 118.78 101.541 115.937 100.689 111.485Z" fill="#111827"/>
<path d="M27.7072 76.5156H27.7474C28.1886 76.5522 28.6329 76.498 29.0519 76.3546C29.4709 76.2119 29.8556 75.9837 30.1821 75.6846C30.5086 75.3856 30.7698 75.0222 30.9489 74.6174C31.1281 74.2125 31.2213 73.7748 31.223 73.3321C31.4297 70.6017 31.522 67.9133 31.6043 65.1715C31.6432 63.9459 31.6351 62.7477 31.6252 61.3582C31.6252 60.8243 31.6174 60.2621 31.6159 59.6733C32.5128 59.6286 33.3914 59.5865 34.2517 59.5468C36.6617 59.4332 38.9391 59.3264 41.2241 59.1579L41.458 59.141C42.7332 59.1475 43.9939 58.8676 45.1466 58.3219C45.7234 57.9814 46.2235 57.5254 46.6161 56.9827C47.0086 56.4399 47.2847 55.8219 47.4275 55.1676C47.4658 54.8432 47.4384 54.5144 47.3467 54.2009C47.255 53.8875 47.1006 53.5958 46.8935 53.3432C46.2051 52.6088 45.2547 52.1757 44.2488 52.1382C43.4059 52.0838 42.5604 52.0934 41.719 52.1672L41.0889 52.2038C38.1867 52.3563 35.2852 52.518 32.3845 52.6889L31.7644 52.7247C31.4395 52.743 31.1141 52.7552 30.7877 52.7682C29.9323 52.7834 29.0787 52.8519 28.2319 52.9733C26.2154 53.3043 24.908 54.6184 24.8211 56.4054C24.5252 62.4732 24.3873 67.9506 24.398 73.1513C24.3844 73.6074 24.4613 74.0616 24.6245 74.4877C24.7876 74.9139 25.0333 75.3034 25.348 75.6338C25.6633 75.9295 26.0342 76.1597 26.4392 76.3112C26.8441 76.4622 27.2752 76.5316 27.7072 76.5156Z" fill="#111827"/>
<path d="M62.9234 162.047C62.169 162.039 61.4209 162.184 60.7236 162.472C60.0264 162.761 59.3944 163.186 58.8654 163.725C58.4307 164.214 58.0993 164.785 57.8915 165.406C57.6838 166.026 57.604 166.682 57.6566 167.334C57.7885 170.02 61.0358 172.806 64.0049 172.806H64.0812C65.4919 172.721 66.824 172.127 67.8298 171.134C68.8355 170.141 69.4464 168.817 69.5495 167.408C69.5755 166.743 69.4619 166.081 69.2158 165.464C68.9697 164.846 68.5967 164.288 68.1209 163.823C67.4228 163.186 66.6012 162.7 65.7071 162.395C64.8129 162.089 63.8653 161.971 62.9234 162.047Z" fill="#111827"/>
</g>
<defs>
<clipPath id="clip0_6283_3124">
<rect width="122.027" height="188.38" fill="white" transform="translate(12.0945 11.6201)"/>
</clipPath>
<clipPath id="clip1_6283_3124">
<rect width="122.027" height="188.38" fill="white" transform="translate(0.474365)"/>
</clipPath>
</defs>
</svg>
