<svg xmlns="http://www.w3.org/2000/svg" width="200" height="50" viewBox="0 0 200 50">
    <path d="m99.167,29.641c22.574-3.609,45.136-7.291,67.739-10.798,9.569-1.487,19.193-2.656,28.811-3.808,1.397-.17,3.84.294,4.142.949.437.924-.191,2.538-1.19,3.417-2.664,2.344-6.44,3.424-10.452,4.037-14.683,2.257-29.347,4.626-44.046,6.802-37.422,5.556-74.857,11.038-112.291,16.527-7.249,1.065-14.507,2.011-21.763,3.039-3.6.514-6.816.028-9.11-1.714-.911-.685-1.224-2.152-.86-3.149.244-.675,2.075-1.503,3.306-1.687,31.853-4.809,63.718-9.552,95.592-14.304.039.222.079.452.118.674l.002.015Z" fill="#FC787D"/>
</svg>
