<svg width="203" height="200" viewBox="0 0 203 200" fill="none" xmlns="http://www.w3.org/2000/svg">
<g clip-path="url(#clip0_6283_3600)">
<path d="M182.184 110.056C181.447 109.969 180.705 109.935 179.963 109.955C173.574 110.015 167.186 110.077 160.797 110.142C146.981 110.281 132.693 110.421 118.641 110.527C115.516 110.55 112.448 110.467 109.2 110.378C107.908 110.343 106.608 110.308 105.297 110.279C105.266 110.152 105.238 110.04 105.212 109.939C105.151 109.733 105.108 109.522 105.083 109.308C104.508 96.5098 103.937 83.7119 103.368 70.914L102.408 49.3303C102.392 48.9674 102.389 48.5998 102.388 48.232C102.425 47.2356 102.333 46.2383 102.116 45.2656C100.669 39.8717 99.6776 38.541 93.9059 38.8225C86.9959 39.1066 80.1504 40.2849 73.5378 42.3281C55.0195 48.1797 41.3927 57.9603 31.8797 72.2236C23.3157 85.0616 17.8426 100.015 15.6083 116.664C12.8347 137.336 18.6401 155.592 32.395 169.458C52.3333 189.556 75.6362 199.655 101.937 199.654C111.662 199.594 121.343 198.336 130.766 195.907C142.148 193.05 151.054 188.274 157.99 181.297C171.348 167.863 180.405 151.287 185.677 130.618C187.225 124.552 187.572 119.516 186.768 114.772C186.317 112.11 185.422 110.485 182.184 110.056Z" fill="#FC787D"/>
<path d="M199.222 86.2173C196.619 79.8955 193.926 73.3577 190.293 67.3354C175.113 42.1804 153.766 26.1589 126.844 19.7152C124.387 19.1257 121.879 18.7817 119.355 18.6883C117.474 18.6123 116.077 19.0409 115.112 19.975C114.121 20.9329 113.633 22.3812 113.619 24.4014C113.603 26.8124 113.717 29.4407 113.975 32.6738L114.096 34.1833C115.184 47.7946 116.311 61.8682 115.482 75.7554C115.482 75.77 115.482 75.784 115.482 75.7986V78.6549C115.482 80.7977 115.482 82.9411 115.482 85.0853C115.482 86.3392 115.465 87.5931 115.448 88.847C115.413 91.6056 115.379 94.4576 115.507 97.2657C115.725 101.968 116.907 103.139 121.506 103.139H121.615C123.158 103.133 124.71 102.985 126.21 102.841C127.263 102.74 128.351 102.637 129.415 102.585C136.746 102.228 144.078 101.879 151.411 101.537C160.246 101.119 169.081 100.696 177.916 100.268C184.584 99.94 190.599 99.6279 196.691 99.1277C198.858 98.9494 200.52 98.0689 201.369 96.6471C202.219 95.2253 202.214 93.3527 201.365 91.3527C200.637 89.6544 199.929 87.9351 199.222 86.2173Z" fill="#FC787D"/>
</g>
<g clip-path="url(#clip1_6283_3600)">
<path d="M167.892 92.0505C167.155 91.9627 166.413 91.9292 165.671 91.9487C159.282 92.0087 152.894 92.0707 146.505 92.1361C132.689 92.2755 118.401 92.4148 104.349 92.5214C101.224 92.5444 98.1557 92.4615 94.9076 92.3723C93.6161 92.3368 92.3156 92.3026 91.0054 92.2727C90.9744 92.1459 90.9461 92.0337 90.9205 91.9334C90.859 91.7272 90.8155 91.5162 90.7907 91.3023C90.216 78.504 89.6449 65.7061 89.0765 52.9081L88.1158 31.3245C88.0999 30.9615 88.0971 30.594 88.0957 30.2262C88.133 29.2297 88.0412 28.2324 87.8236 27.2597C86.3774 21.8658 85.3856 20.5352 79.6139 20.8166C72.7039 21.1008 65.8584 22.279 59.2458 24.3222C40.7275 30.1738 27.1007 39.9544 17.5877 54.2177C9.02366 67.0558 3.5506 82.0087 1.31635 98.6586C-1.4573 119.33 4.34806 137.586 18.103 151.452C38.0413 171.55 61.3442 181.649 87.6448 181.648C97.3698 181.588 107.051 180.33 116.474 177.901C127.856 175.045 136.762 170.268 143.698 163.291C157.056 149.857 166.113 133.281 171.385 112.613C172.933 106.546 173.28 101.511 172.476 96.7666C172.025 94.1041 171.13 92.4789 167.892 92.0505ZM27.6676 144.179C16.8582 133.612 11.8079 119.647 13.0628 103.795C14.4834 85.8512 20.2151 69.93 30.0983 56.4719C35.7009 48.8418 43.3154 42.6892 53.3733 37.6631C61.1825 33.8343 69.4565 31.0579 77.984 29.4053C78.4833 29.3235 78.9902 29.2897 79.4958 29.3043H79.7472C79.7506 29.3245 79.7534 29.3447 79.7562 29.3642C79.819 29.7283 79.8563 30.0963 79.8694 30.4656C79.973 50.1289 80.067 69.792 80.1512 89.4555C80.1512 90.3612 80.1042 91.2897 80.0552 92.1884C80.0207 92.8154 79.9861 93.4423 79.9682 94.0734C79.8922 96.7638 80.4848 98.6816 81.7805 99.9348C83.0623 101.176 84.9471 101.686 87.5612 101.505C88.0681 101.469 88.5813 101.479 89.122 101.49L89.6207 101.499C92.7901 101.534 95.9595 101.575 99.1295 101.623C105.999 101.72 113.11 101.832 120.091 101.809C128.794 101.798 137.643 101.706 146.198 101.616C150.73 101.569 155.263 101.526 159.797 101.485C159.965 101.516 160.13 101.565 160.289 101.63L160.487 101.7C160.255 103.003 160.054 104.323 159.858 105.601C159.447 108.855 158.779 112.071 157.862 115.219C153.515 128.707 147.791 139.879 140.359 149.378C134.212 157.233 126.758 162.537 118.2 165.145C83.2508 175.795 52.7899 168.741 27.6676 144.179Z" fill="#111827"/>
<path d="M184.677 68.0357C182.074 61.7138 179.381 55.176 175.747 49.1538C160.568 23.9988 139.22 7.97724 112.299 1.53353C109.842 0.944094 107.333 0.600075 104.81 0.506618C102.928 0.430686 101.532 0.859224 100.566 1.79339C99.5758 2.75125 99.0875 4.19953 99.0737 6.21973C99.0578 8.63074 99.1711 11.2591 99.4294 14.4921L99.5503 16.0017C100.639 29.613 101.765 43.6866 100.936 57.5738C100.936 57.5884 100.936 57.6024 100.936 57.617V60.4732C100.936 62.616 100.936 64.7595 100.936 66.9037C100.936 68.1576 100.919 69.4114 100.903 70.6654C100.867 73.424 100.833 76.2759 100.961 79.084C101.18 83.7862 102.361 84.9572 106.961 84.9572H107.07C108.613 84.9517 110.165 84.8033 111.664 84.6598C112.717 84.5588 113.805 84.455 114.87 84.4034C122.201 84.0468 129.533 83.6977 136.866 83.355C145.701 82.937 154.536 82.5142 163.37 82.0865C170.039 81.7584 176.053 81.4463 182.146 80.9461C184.313 80.7678 185.975 79.8872 186.824 78.4654C187.674 77.0436 187.669 75.1711 186.819 73.1711C186.092 71.4727 185.384 69.7535 184.677 68.0357ZM175.583 70.7162L175.332 70.758C174.618 70.8918 173.897 70.9809 173.172 71.0255C169.686 71.1648 166.2 71.2791 162.714 71.3975C156.736 71.5995 150.554 71.8092 144.475 72.1115C136.878 72.4912 129.16 72.9712 121.697 73.4351C118.085 73.6594 114.472 73.881 110.86 74.099C110.445 74.1227 110.017 74.1171 109.424 74.1115L108.949 74.106C110.331 50.5699 110 29.4707 107.933 9.6685C137.819 14.1457 164.835 38.5172 175.583 70.7162Z" fill="#111827"/>
</g>
<defs>
<clipPath id="clip0_6283_3600">
<rect width="187.166" height="181.818" fill="white" transform="translate(14.9331 18.1816)"/>
</clipPath>
<clipPath id="clip1_6283_3600">
<rect width="187.166" height="181.818" fill="white" transform="translate(0.387695)"/>
</clipPath>
</defs>
</svg>
