<svg width="198" height="200" viewBox="0 0 198 200" fill="none" xmlns="http://www.w3.org/2000/svg">
<g clip-path="url(#clip0_6305_11241)">
<path d="M190.524 23.6722L191.365 23.5096C192.329 23.3229 193.239 23.1463 194.128 22.9385C195.093 22.7431 195.964 22.2291 196.601 21.4792C197.239 20.7292 197.606 19.7869 197.644 18.8031C197.681 17.8194 197.389 16.8514 196.811 16.0546C196.233 15.2578 195.404 14.6782 194.457 14.4091C192.598 13.8552 190.669 13.5778 188.729 13.5861C183.859 13.7041 178.911 13.8764 174.123 14.0428C167.621 14.2678 160.898 14.5013 154.288 14.6021C124.389 15.06 91.7297 15.479 54.4403 15.8822C46.1888 15.972 37.8069 15.7647 30.4116 15.5834C28.0558 15.5256 25.6524 15.3333 23.3294 15.1481C21.8383 15.0293 20.3472 14.914 18.8553 14.8242C15.6692 14.6445 14.4359 16.3869 13.9696 17.8871C13.2728 20.1296 14.2727 22.2664 16.5777 23.465C17.2584 23.8039 17.9581 24.1031 18.6733 24.3613L19.1107 24.5303C19.1107 26.0367 19.1139 27.5348 19.1201 29.0246C19.1287 32.5298 19.1388 36.154 19.1037 39.6975C19.0084 49.481 18.7913 59.4301 18.578 69.0511C17.9805 96.233 17.3634 124.34 19.4372 151.998C19.7848 156.632 21.2798 158.263 25.5883 158.713C29.2063 159.127 32.8463 159.317 36.4877 159.283C46.973 159.056 57.631 158.746 67.9383 158.448C72.152 158.324 76.3665 158.203 80.5818 158.085C81.1786 158.068 81.7769 158.071 82.5462 158.076C82.2916 158.388 82.044 158.692 81.805 158.985C80.7029 160.335 79.7507 161.499 78.8665 162.724C73.3919 170.304 67.1861 178.899 61.1522 187.49C60.0886 189.118 59.2726 190.895 58.7308 192.762C58.3723 193.82 58.3728 194.966 58.7319 196.023C59.091 197.08 59.7889 197.989 60.7171 198.609C61.5669 199.238 62.5978 199.573 63.6548 199.565C64.9745 199.547 66.2506 199.089 67.2814 198.265C68.2695 197.469 69.1547 196.552 69.9168 195.537C77.7894 185.402 85.6456 175.254 93.6145 164.962L99.325 157.586L120.986 156.877L125.282 163.739C128.82 169.395 132.298 174.958 135.789 180.514C136.396 181.479 137 182.445 137.602 183.413C139.723 186.819 141.917 190.34 144.253 193.691C145.552 195.512 147.21 197.049 149.123 198.207C150.175 198.908 151.428 199.238 152.688 199.146C153.948 199.055 155.142 198.546 156.081 197.701C157.101 196.867 157.823 195.724 158.137 194.442C158.451 193.162 158.34 191.814 157.819 190.602C157.095 188.827 156.192 187.131 155.121 185.541C150.886 179.215 146.633 172.902 142.361 166.601C140.264 163.501 138.169 160.4 136.076 157.298C135.985 157.159 135.903 157.015 135.832 156.865C136.188 156.826 136.51 156.795 136.821 156.787C140.695 156.712 144.57 156.644 148.445 156.58C157.385 156.423 166.63 156.267 175.722 156.012C178 155.901 180.269 155.654 182.517 155.272C183.689 155.097 184.904 154.915 186.092 154.779C189.163 154.428 191.048 152.517 191.693 149.099C191.919 147.657 192.008 146.198 191.959 144.739V144.56C191.948 139.021 191.944 133.482 191.948 127.941C191.948 113.664 191.943 98.9014 191.767 84.3804C191.611 71.3839 191.279 58.1736 190.959 45.399C190.809 39.4111 190.665 33.4231 190.526 27.4352C190.505 26.4702 190.51 25.5038 190.517 24.4974C190.52 24.2271 190.522 23.9519 190.524 23.6722Z" fill="#FBB130"/>
</g>
<g clip-path="url(#clip1_6305_11241)">
<path d="M177.271 10.4183L178.112 10.2557C179.077 10.069 179.986 9.8924 180.875 9.68455C181.84 9.48921 182.711 8.97515 183.348 8.22527C183.986 7.47531 184.353 6.53295 184.391 5.54922C184.429 4.56548 184.136 3.59752 183.558 2.80069C182.98 2.00386 182.151 1.42431 181.204 1.15516C179.345 0.601339 177.416 0.323935 175.476 0.332211C170.606 0.450198 165.658 0.622468 160.87 0.788897C154.368 1.01393 147.645 1.24742 141.035 1.34822C111.136 1.8061 78.4768 2.22506 41.1873 2.62825C32.9359 2.7181 24.554 2.51078 17.1586 2.3295C14.8029 2.27168 12.3995 2.07937 10.0765 1.89418C8.58539 1.77541 7.09426 1.66012 5.60238 1.57026C2.41631 1.39055 1.18296 3.13295 0.716649 4.63317C0.0199166 6.8757 1.01973 9.0125 3.32473 10.2111C4.00544 10.55 4.70515 10.8492 5.42038 11.1073L5.85779 11.2764C5.85779 12.7828 5.86093 14.2809 5.86718 15.7707C5.87578 19.2759 5.88591 22.9001 5.85076 26.4436C5.75546 36.2271 5.53834 46.1762 5.32511 55.7972C4.72757 82.9791 4.11049 111.086 6.18428 138.744C6.53187 143.378 8.02691 145.01 12.3354 145.459C15.9533 145.873 19.5934 146.063 23.2347 146.029C33.7201 145.802 44.3781 145.492 54.6854 145.194C58.899 145.07 63.1136 144.949 67.3289 144.831C67.9256 144.814 68.5239 144.817 69.2933 144.822C69.0387 145.135 68.7911 145.439 68.5521 145.732C67.4499 147.081 66.4978 148.245 65.6136 149.47C60.1389 157.05 53.9332 165.645 47.8992 174.236C46.8356 175.864 46.0196 177.641 45.4779 179.509C45.1194 180.566 45.1199 181.712 45.479 182.769C45.8381 183.826 46.5359 184.735 47.4642 185.355C48.314 185.984 49.3449 186.319 50.4019 186.311C51.7216 186.293 52.9977 185.835 54.0285 185.011C55.0165 184.215 55.9018 183.298 56.6639 182.283C64.5365 172.148 72.3927 162 80.3615 151.708L86.0721 144.332L107.733 143.623L112.029 150.485C115.567 156.141 119.045 161.704 122.537 167.26C123.143 168.225 123.747 169.191 124.349 170.159C126.47 173.565 128.664 177.086 131 180.438C132.299 182.258 133.957 183.795 135.87 184.953C136.922 185.654 138.176 185.984 139.435 185.892C140.695 185.801 141.889 185.292 142.828 184.447C143.849 183.613 144.57 182.47 144.884 181.188C145.198 179.908 145.087 178.56 144.566 177.348C143.842 175.574 142.939 173.877 141.868 172.287C137.633 165.961 133.38 159.648 129.108 153.348C127.011 150.247 124.916 147.146 122.823 144.044C122.733 143.905 122.651 143.761 122.579 143.611C122.935 143.572 123.257 143.541 123.568 143.533C127.443 143.459 131.317 143.39 135.192 143.326C144.132 143.169 153.377 143.013 162.469 142.758C164.747 142.647 167.016 142.401 169.264 142.018C170.436 141.843 171.651 141.661 172.839 141.525C175.91 141.174 177.795 139.263 178.44 135.845C178.666 134.403 178.755 132.944 178.706 131.485V131.306C178.695 125.767 178.691 120.228 178.695 114.687C178.695 100.41 178.69 85.6475 178.514 71.1265C178.358 58.13 178.026 44.9197 177.706 32.1451C177.557 26.1572 177.412 20.1692 177.273 14.1813C177.252 13.2163 177.257 12.2499 177.264 11.2435C177.267 10.9732 177.269 10.698 177.271 10.4183ZM19.0583 133.967L18.9997 133.951L18.9505 133.649C18.846 133.081 18.7758 132.507 18.7404 131.93C18.5904 128.102 18.4282 124.273 18.2537 120.444C17.8538 111.35 17.4398 101.946 17.2969 92.6985C17.0844 79.048 17.0056 65.164 16.9306 51.7377C16.8814 43.0872 16.8306 34.1415 16.7447 25.3433C16.7158 22.3537 16.515 19.3712 16.3034 16.2129C16.2206 14.9736 16.1354 13.7056 16.0581 12.3968C56.0765 13.7213 96.6488 12.8655 135.894 12.031C145.814 11.8216 156.059 11.6052 166.174 11.4255V130.198C116.382 129.486 67.068 130.787 19.6027 134.071C19.4181 134.055 19.2357 134.02 19.0583 133.967Z" fill="#111827"/>
<path d="M155.594 36.2352C156.852 34.8557 157.739 33.1792 158.172 31.3627C158.391 30.5585 158.411 29.7126 158.229 28.8988C158.048 28.085 157.67 27.328 157.13 26.6936C156.588 26.0592 155.901 25.5663 155.126 25.2583C154.352 24.9503 153.514 24.8364 152.685 24.9263C151.1 25.1075 149.587 25.6846 148.283 26.6047C146.561 27.8496 144.926 29.2111 143.39 30.679L142.986 31.0476C131.225 41.7674 119.444 52.5181 107.646 63.2989L97.0428 72.9797L97.017 72.9675C93.0061 68.3473 88.104 64.7083 83.3627 61.1898C81.0085 59.4434 78.5739 57.6361 76.2938 55.7397C73.1319 53.1127 70.7816 53.0386 67.3113 55.4585C65.4164 56.8112 63.6918 58.3878 62.1748 60.1543C58.7935 64.0112 55.3981 67.968 52.1151 71.7928C49.4485 74.9005 46.7754 78.0018 44.0957 81.0962C41.5878 83.9786 39.0652 86.8494 36.5277 89.7076C33.2737 93.3926 29.9087 97.2033 26.6453 100.994C25.2465 102.556 24.1426 104.36 23.3874 106.317C23.2083 107.07 23.2017 107.854 23.3683 108.61C23.5348 109.367 23.87 110.076 24.3489 110.683C24.655 111.049 25.0389 111.342 25.4726 111.541C25.9063 111.739 26.3787 111.838 26.8554 111.83C27.7745 111.806 28.6679 111.523 29.433 111.013C30.051 110.615 30.6177 110.143 31.1202 109.607L33.9321 106.655C43.8051 96.3055 54.014 85.6039 64.0221 75.0457C65.6858 73.2908 67.312 71.4431 69.0343 69.4857C69.71 68.7184 70.4098 67.9229 71.1433 67.0939C72.3623 68.3743 73.5654 69.6425 74.7527 70.8989C78.3372 74.6839 81.7232 78.2606 85.2366 81.8158C86.8777 83.4825 88.739 84.9171 90.769 86.0805C93.5513 87.6558 96.2093 87.6683 98.4519 86.1172C100.248 84.9131 101.981 83.6176 103.643 82.2338L108.798 77.8206C119.988 68.241 131.558 58.3355 142.848 48.4872C147.414 44.5006 151.673 40.239 155.594 36.2352Z" fill="#111827"/>
</g>
<defs>
<clipPath id="clip0_6305_11241">
<rect width="184.337" height="186.747" fill="white" transform="translate(13.4429 13.2539)"/>
</clipPath>
<clipPath id="clip1_6305_11241">
<rect width="184.337" height="186.747" fill="white" transform="translate(0.189941)"/>
</clipPath>
</defs>
</svg>
