<svg width="183" height="214" viewBox="0 0 183 214" fill="none" xmlns="http://www.w3.org/2000/svg">
<path d="M182.311 115.455C182.311 133.018 182.213 150.582 182.363 168.144C182.293 174.613 181.634 181.064 180.398 187.414C179.962 190.146 178.995 192.765 177.554 195.124C171.497 204.509 163.078 210.46 151.761 211.691C127.013 214.41 102.058 214.659 77.2606 212.438C67.6303 211.568 57.9031 211.517 48.506 208.921C44.046 207.807 39.6825 206.335 35.4577 204.52C24.5648 199.503 18.3264 190.828 16.8763 178.859C16.4223 175.189 16.1957 171.495 16.1978 167.797C16.3317 131.749 16.5634 95.6977 16.7069 59.6477C16.7783 52.2476 17.8099 44.888 19.7757 37.755C21.0878 32.8149 23.6311 28.2908 27.1663 24.6081C31.6195 19.8032 37.7848 16.9572 44.3196 16.6906C56.7406 16.0661 69.1607 15.3113 81.5911 15.0385C93.5645 14.7761 105.554 14.8856 117.528 15.1528C125.808 15.337 134.088 15.9329 142.342 16.642C144.629 16.8388 146.822 17.6423 148.697 18.9695C160.17 27.5647 170.807 37.0907 179.884 48.2741C181.932 50.7919 182.977 53.9815 182.817 57.2268C182.568 74.7857 182.475 92.3482 182.331 109.909C182.316 111.758 182.331 113.606 182.331 115.455H182.311ZM148.019 36.1416C147.543 36.8671 147.187 37.6651 146.964 38.5046C146.752 40.7615 146.694 43.0386 146.705 45.3081C146.674 45.8711 146.755 46.4347 146.945 46.9656C147.134 47.4964 147.428 47.984 147.808 48.3991C148.188 48.8143 148.648 49.1486 149.159 49.3827C149.671 49.6168 150.224 49.7456 150.786 49.7617C153.938 49.8131 157.095 49.6894 160.248 49.5787C160.433 49.5339 160.605 49.4457 160.75 49.3209C160.895 49.1961 161.007 49.0381 161.08 48.8608C161.158 48.6485 161.193 48.423 161.183 48.1969C161.174 47.9707 161.119 47.7485 161.022 47.5438C157.817 43.1541 153.867 39.364 149.353 36.3469C149.021 36.116 148.47 36.2032 148.019 36.1416Z" fill="#FBB130"/>
<path d="M166.458 100.821C166.458 118.384 166.359 135.948 166.51 153.509C166.439 159.979 165.781 166.429 164.544 172.78C164.109 175.512 163.142 178.131 161.7 180.49C155.644 189.874 147.224 195.825 135.908 197.057C111.16 199.776 86.2045 200.025 61.4071 197.803C51.7768 196.934 42.0496 196.882 32.6525 194.286C28.1925 193.173 23.829 191.701 19.6041 189.886C8.71129 184.869 2.47288 176.194 1.02281 164.225C0.568786 160.555 0.342153 156.86 0.344253 153.162C0.478227 117.115 0.709919 81.0634 0.853347 45.0135C0.924755 37.6133 1.95638 30.2537 3.92217 23.1207C5.2343 18.1806 7.77758 13.6565 11.3127 9.97378C15.766 5.16895 21.9313 2.32293 28.4661 2.05631C40.8871 1.43181 53.3072 0.676993 65.7376 0.404265C77.7109 0.141815 89.7004 0.251325 101.675 0.518519C109.955 0.702709 118.234 1.29859 126.489 2.00768C128.775 2.20453 130.968 3.008 132.844 4.33522C144.317 12.9305 154.954 22.4564 164.031 33.6398C166.078 36.1576 167.123 39.3472 166.964 42.5925C166.714 60.1514 166.621 77.7139 166.478 95.2745C166.463 97.1235 166.478 98.9717 166.478 100.821H166.458ZM14.216 100.248C12.9149 119.598 12.8259 138.967 12.7975 158.337C12.8653 162.493 13.4966 166.62 14.6739 170.605C15.2869 173.075 16.4249 175.384 18.0099 177.373C19.595 179.361 21.5896 180.982 23.8574 182.126C26.2701 183.467 28.845 184.49 31.5184 185.17C37.7946 186.556 44.0812 187.882 50.5585 188.241C75.8127 189.773 101.135 189.814 126.394 188.367C129.605 188.167 132.827 187.942 136.003 187.459C139.662 186.867 143.074 185.233 145.835 182.753C149.342 179.736 151.959 175.814 153.401 171.411C155.66 164.708 155.686 157.815 155.686 150.886C155.682 120.904 155.677 90.9211 155.673 60.9388C155.673 57.2486 155.66 53.5577 155.567 49.8716C155.489 46.719 153.755 45.1688 150.218 45.0645C143.782 44.8747 137.341 44.8345 130.91 44.5325C128.628 44.3714 126.372 43.9474 124.188 43.268C123.065 42.9793 122.05 42.3731 121.261 41.5218C120.473 40.6705 119.945 39.6099 119.741 38.4663C119.344 36.1982 119.148 33.8991 119.155 31.5964C119.092 26.0699 119.162 20.5422 119.19 15.0141C119.195 14.0323 117.676 12.0387 116.855 11.9162C115.958 11.7203 115.049 11.5836 114.135 11.5078C92.0639 11.1916 69.992 10.8996 47.9199 10.6308C44.249 10.592 40.5735 10.9758 36.8987 11.1449C32.238 11.3584 27.842 12.7373 23.5485 14.3927C20.5021 15.5607 17.9731 17.7836 16.4188 20.6596C14.3982 24.3276 13.0166 28.1913 13.4902 32.5297C13.9906 37.1147 14.7322 41.7076 14.7244 46.2965C14.6913 64.2776 14.406 82.2626 14.216 100.248ZM132.165 21.5073C131.689 22.2328 131.333 23.0309 131.11 23.8703C130.899 26.1272 130.841 28.4043 130.852 30.6739C130.82 31.2369 130.901 31.8004 131.091 32.3313C131.28 32.8622 131.574 33.3497 131.954 33.7648C132.335 34.18 132.794 34.5143 133.306 34.7484C133.817 34.9825 134.37 35.1113 134.932 35.1275C138.085 35.1788 141.242 35.0551 144.394 34.9445C144.579 34.8996 144.751 34.8114 144.896 34.6866C145.041 34.5618 145.154 34.4038 145.226 34.2265C145.304 34.0143 145.34 33.7887 145.329 33.5626C145.32 33.3365 145.266 33.1142 145.169 32.9095C141.964 28.5199 138.014 24.7297 133.5 21.7126C133.168 21.4818 132.616 21.569 132.165 21.5073Z" fill="#111827"/>
<path d="M63.2351 112.5C67.8202 112.5 72.4052 112.537 76.9895 112.481C77.896 112.386 78.7451 111.992 79.4022 111.358C80.0587 110.724 80.4858 109.888 80.6143 108.983C80.909 103.008 81.0808 97.0257 81.437 91.055C81.4946 88.7625 81.8657 86.489 82.5403 84.2976C82.7531 83.6384 83.1598 83.0597 83.7075 82.6384C84.256 82.2162 84.9188 81.972 85.6083 81.9372C86.2979 81.9024 86.982 82.0787 87.5699 82.4431C88.157 82.8067 88.6204 83.3419 88.897 83.9767C89.626 85.6589 90.024 87.466 90.0689 89.2992C90.4219 93.8905 90.5701 98.4984 90.8444 103.096C90.9271 104.472 91.1367 105.842 91.3235 107.207C91.768 110.464 93.6397 112.404 96.6588 112.387C101.244 112.36 105.827 112.071 110.412 112.026C114.065 111.993 117.786 111.913 121.13 113.696C121.714 114.007 121.927 115.166 122.131 115.981C122.167 116.21 122.149 116.445 122.078 116.666C122.009 116.887 121.889 117.089 121.728 117.257C121.091 117.914 120.296 118.396 119.418 118.655C116.7 119.026 113.953 119.242 111.212 119.362C106.168 119.582 101.119 119.648 96.0764 119.865C94.9345 119.985 93.8737 120.514 93.0872 121.354C92.3015 122.194 91.8429 123.29 91.7956 124.442C91.4015 131.336 91.1304 138.238 90.7135 145.131C90.5756 147.409 90.1721 149.676 89.8285 151.937C89.6008 153.439 87.1175 155.233 85.7534 155.004C84.2765 154.757 82.1471 152.834 81.9587 151.408C81.6593 149.138 81.3283 146.857 81.2495 144.574C81.0044 137.674 80.8956 130.771 80.6813 123.87C80.5985 122.958 80.2124 122.1 79.585 121.435C78.9577 120.77 78.1252 120.335 77.2219 120.201C71.7242 119.912 66.2219 119.71 60.7251 119.411C57.0644 119.209 53.4062 118.937 49.7534 118.612C47.862 118.445 45.7184 116.196 46.3119 115.055C46.5886 114.442 47.0323 113.919 47.5919 113.547C48.1514 113.175 48.8042 112.968 49.4752 112.951C54.0595 112.911 58.6446 112.937 63.2288 112.937L63.2351 112.5Z" fill="#111827"/>
</svg>
